<svg viewBox="0 0 162 42" xmlns="http://www.w3.org/2000/svg" data-logo="logo">
        <g transform="translate(0, 1) rotate(0)" id="logogram"><path fill="#0F2A44" d="M21.3474 0.349945L46.7544 25.7266V39.3499H34.8978V30.624L16.4444 12.1924H12.611V39.3499H0.754395V0.349945H21.3474ZM34.8978 13.8842V0.349945H46.7544V13.8842H34.8978Z"></path></g>
        <g transform="translate(53, 8.5)" id="logotype"><path d="M19.51 25.42L19.51 25.42Q15.91 25.42 13.07 24.34Q10.23 23.25 8.61 21.15Q6.98 19.05 6.98 16.00L6.98 16.00Q6.98 12.92 8.52 10.82Q10.06 8.72 12.84 7.66Q15.63 6.59 19.30 6.59L19.30 6.59Q23.19 6.59 25.88 7.80Q28.58 9.00 29.89 11.40Q31.20 13.80 30.85 17.34L30.85 17.34L13.80 17.34Q13.98 18.80 15.36 19.82Q16.75 20.84 19.51 20.84L19.51 20.84Q21.96 20.84 23.03 20.27Q24.10 19.71 24.59 18.80L24.59 18.80L30.78 19.47Q30.01 22.38 26.97 23.90Q23.92 25.42 19.51 25.42ZM19.37 10.82L19.37 10.82Q16.75 10.82 15.43 11.72Q14.12 12.61 13.84 13.87L13.84 13.87L24.66 13.87Q24.45 12.40 23.13 11.61Q21.82 10.82 19.37 10.82ZM37.89 25L30.32 25L37.85 15.93L30.39 7.01L38.23 7.01L42.02 11.94L45.80 7.01L53.39 7.01L46.04 15.79L53.70 25L45.90 25L41.91 19.75L37.89 25ZM61.69 25.35L61.69 25.35Q58.01 25.35 55.73 23.93Q53.46 22.52 53.46 19.86L53.46 19.86Q53.46 17.68 55.14 16.20Q56.82 14.71 60.74 14.32L60.74 14.32L68.27 13.59L68.27 13.41Q68.27 10.96 64.52 10.96L64.52 10.96Q62.80 10.96 61.84 11.47Q60.88 11.98 60.53 13.10L60.53 13.10L53.70 12.61Q54.13 11.00 55.35 9.63Q56.58 8.27 58.85 7.43Q61.13 6.59 64.63 6.59L64.63 6.59Q69.70 6.59 72.38 8.38Q75.06 10.16 75.06 13.59L75.06 13.59L75.06 19.57Q75.06 20.87 75.07 21.75Q75.09 22.62 75.14 23.37Q75.20 24.13 75.30 25L75.30 25L68.83 25L68.69 23.46Q67.46 24.48 65.64 24.91Q63.82 25.35 61.69 25.35ZM60.36 19.71L60.36 19.71Q60.36 20.41 61.00 20.85Q61.65 21.29 63.16 21.29L63.16 21.29Q64.42 21.29 65.59 21.04Q66.76 20.80 67.51 20.20Q68.27 19.61 68.27 18.59L68.27 18.59L68.27 17.37L62.45 18.11Q61.48 18.24 60.91 18.59Q60.36 18.95 60.36 19.71ZM88.67 25L81.67 25L81.67 5.33L71.80 5.33L71.80 0.15L98.54 0.15L98.54 5.33L88.67 5.33L88.67 25ZM108.13 25L101.13 25L101.13 0.15L108.13 0.15L108.13 25Z" fill="#0F2A44"></path></g>
        
      </svg>